<svg xmlns="http://www.w3.org/2000/svg" aria-hidden="true" style="position:absolute;width:0;height:0;overflow:hidden">
  <defs>
    <symbol id="icon-chocolate" viewBox="0 0 32 32">
      <path fill="#fcf1e0"
        d="M3.944 20.076 14.721 2.652l.64-.674 8.236 5.491.056 3.314 2.01 3.28-8.88 14.077-12.839-8.063z"
        style="fill:var(--color1, #fcf1e0)" />
      <path fill="none" stroke="#fd9222" stroke-linecap="round" stroke-linejoin="round" stroke-width="2.667"
        d="M21.635 23.879 7.449 15.015m3.912-6.416 14.186 8.864M10.63 25.864l11.736-19.25m4.81 8.175c-3.04-1.899-4.234-3.384-2.278-6.592l-9.626-6.015-11.736 19.25 14.186 8.864 9.454-15.507z"
        style="stroke:var(--color2, #fd9222)" />
    </symbol>
    <symbol id="icon-arrow" viewBox="0 0 32 32">
      <path stroke-linecap="round" stroke-linejoin="round" stroke-width="1.333"
        d="M9.143 16h13.714m0 0-3.429-3.429M22.857 16l-3.429 3.429M16 30.857c8.205 0 14.857-6.652 14.857-14.857S24.205 1.143 16 1.143C7.795 1.143 1.143 7.795 1.143 16S7.795 30.857 16 30.857z" />
    </symbol>
    <symbol id="icon-coin" viewBox="0 0 32 32">
      <path
        d="M16 2.667c-7.333 0-13.333 6-13.333 13.333s6 13.333 13.333 13.333 13.333-6 13.333-13.333S23.333 2.667 16 2.667zm0 24c-5.867 0-10.667-4.8-10.667-10.667S10.133 5.333 16 5.333 26.667 10.133 26.667 16 21.867 26.667 16 26.667z" />
      <path
        d="M17.733 14.667h-3.467c-.667 0-1.2-.533-1.2-1.2s.533-1.2 1.2-1.2h4.933c.8 0 1.333-.533 1.333-1.333s-.533-1.333-1.333-1.333h-1.867v-1.2c0-.8-.533-1.333-1.333-1.333s-1.333.533-1.333 1.333v1.2h-.4c-2.133 0-3.867 1.733-3.867 3.867s1.733 3.867 3.867 3.867h3.333c.667 0 1.2.533 1.2 1.2s-.533 1.2-1.2 1.2h-4.933c-.8 0-1.333.533-1.333 1.333s.533 1.333 1.333 1.333h2v1.2c0 .8.533 1.333 1.333 1.333s1.333-.533 1.333-1.333v-1.2h.4c2.133 0 3.867-1.733 3.867-3.867s-1.733-3.867-3.867-3.867z" />
    </symbol>
    <symbol id="icon-ellipse" viewBox="0 0 32 32">
      <path d="M32 16c0 8.837-7.163 16-16 16S0 24.837 0 16 7.163 0 16 0s16 7.163 16 16z" />
      <path
        d="M16 28C9.373 28 4 22.627 4 16S9.373 4 16 4s12 5.373 12 12-5.373 12-12 12zm0 4c8.837 0 16-7.163 16-16S24.837 0 16 0 0 7.163 0 16s7.163 16 16 16z" />
    </symbol>
    <symbol id="icon-facebook" viewBox="0 0 32 32">
      <path
        d="M14.579 3.912A7.667 7.667 0 0 1 20 1.666h4a1 1 0 0 1 1 1v5.333a1 1 0 0 1-1 1h-4a.334.334 0 0 0-.334.334v3h4.333a.998.998 0 0 1 .97 1.243l-1.333 5.333a1 1 0 0 1-.97.757h-3v9.667a1 1 0 0 1-1 1h-5.333a1 1 0 0 1-1-1v-9.667h-3a1 1 0 0 1-1-1v-5.333a1 1 0 0 1 1-1h3v-3a7.67 7.67 0 0 1 2.245-5.421zM20 3.667a5.666 5.666 0 0 0-5.667 5.667v4a1 1 0 0 1-1 1h-3v3.333h3a1 1 0 0 1 1 1v9.667h3.333v-9.667a1 1 0 0 1 1-1h3.219l.833-3.333h-4.053a1 1 0 0 1-1-1v-4a2.336 2.336 0 0 1 2.333-2.333h3V3.668h-3z" />
    </symbol>
    <symbol id="icon-chocolate-bar" viewBox="0 0 32 32">
      <path
        d="m13.822 2.413 7.527 7.536.08-.08a.856.856 0 0 1 1.184-.013l.873.873c.305.305.315.77.083 1.094l-.004.007-.143.192 6.16 6.16c.55.55.55 1.43 0 1.98l-9.43 9.43c-.55.55-1.43.55-1.98 0l-4.447-4.447a.853.853 0 0 1-.612.317.842.842 0 0 1-.644-.246l-2.6-2.6a.856.856 0 0 1-.013-1.184l.006-.007.077-.076-7.527-7.527c-.55-.55-.55-1.43 0-1.98l9.43-9.43c.55-.55 1.43-.55 1.98 0v.001zm6.582 8.48-1.756-1.755a.59.59 0 0 0-.85 0l-3.58 3.58a.602.602 0 0 0 0 .86l1.749 1.749.61-.61-1.565-1.565 3.21-3.22 1.569 1.574.613-.613zm-5.075 5.073-1.754-1.754a.59.59 0 0 0-.85 0l-3.59 3.59c-.24.23-.24.61 0 .85l1.752 1.752.616-.616-1.57-1.564 3.22-3.21 1.564 1.563.612-.611zM8.822 8.194l3.58 3.58c.24.24.62.24.85-.01l3.58-3.58a.57.57 0 0 0 .18-.42h.01c0-.15-.06-.31-.18-.43l-3.58-3.58a.602.602 0 0 0-.86 0l-3.58 3.59c-.24.23-.24.61 0 .85zm-5.07 5.07 3.58 3.58c.24.24.62.24.85 0l3.58-3.58a.578.578 0 0 0 .18-.43h.01c0-.16-.06-.31-.18-.43l-3.58-3.58a.59.59 0 0 0-.85 0l-3.59 3.59c-.24.23-.24.61 0 .85zm6.933 8.753 2.362 2.363 9.636-13.04-.655-.655-11.343 11.332z" />
      <path
        d="m13.822 2.413 7.527 7.536.08-.08a.856.856 0 0 1 1.184-.013l.873.873c.305.305.315.77.083 1.094l-.004.007-.143.192 6.16 6.16c.55.55.55 1.43 0 1.98l-9.43 9.43c-.55.55-1.43.55-1.98 0l-4.447-4.447a.853.853 0 0 1-.612.317.842.842 0 0 1-.644-.246l-2.6-2.6a.856.856 0 0 1-.013-1.184l.006-.007.077-.076-7.527-7.527c-.55-.55-.55-1.43 0-1.98l9.43-9.43c.55-.55 1.43-.55 1.98 0v.001zm6.582 8.48-1.756-1.755a.59.59 0 0 0-.85 0l-3.58 3.58a.602.602 0 0 0 0 .86l1.749 1.749.61-.61-1.565-1.565 3.21-3.22 1.569 1.574.613-.613zm-5.075 5.073-1.754-1.754a.59.59 0 0 0-.85 0l-3.59 3.59c-.24.23-.24.61 0 .85l1.752 1.752.616-.616-1.57-1.564 3.22-3.21 1.564 1.563.612-.611zM8.822 8.194l3.58 3.58c.24.24.62.24.85-.01l3.58-3.58a.57.57 0 0 0 .18-.42h.01c0-.15-.06-.31-.18-.43l-3.58-3.58a.602.602 0 0 0-.86 0l-3.58 3.59c-.24.23-.24.61 0 .85zm-5.07 5.07 3.58 3.58c.24.24.62.24.85 0l3.58-3.58a.578.578 0 0 0 .18-.43h.01c0-.16-.06-.31-.18-.43l-3.58-3.58a.59.59 0 0 0-.85 0l-3.59 3.59c-.24.23-.24.61 0 .85zm6.933 8.753 2.362 2.363 9.636-13.04-.655-.655-11.343 11.332z" />
    </symbol>
    <symbol id="icon-instagram" viewBox="0 0 32 32">
      <path
        d="M8.727 2.545a6.182 6.182 0 0 0-6.182 6.182v14.545a6.182 6.182 0 0 0 6.182 6.182h14.545a6.182 6.182 0 0 0 6.182-6.182V8.727a6.182 6.182 0 0 0-6.182-6.182H8.727zM.364 8.727A8.364 8.364 0 0 1 8.728.363h14.545a8.364 8.364 0 0 1 8.364 8.364v14.545a8.364 8.364 0 0 1-8.364 8.364H8.728a8.364 8.364 0 0 1-8.364-8.364V8.727z" />
      <path
        d="M16.756 11.261a4.727 4.727 0 1 0-1.39 9.35 4.727 4.727 0 0 0 1.391-9.349zm-3.875-1.457a6.914 6.914 0 0 1 8.068 1.247 6.908 6.908 0 1 1-11.707 5.982 6.91 6.91 0 0 1 3.639-7.23zM22.909 8A1.09 1.09 0 0 1 24 6.909h.015a1.091 1.091 0 0 1 0 2.182H24A1.091 1.091 0 0 1 22.909 8z" />
    </symbol>
    <symbol id="icon-spoon" viewBox="0 0 32 32">
      <path
        d="M15.451 14.106a5.154 5.154 0 0 1-1.177-3.282c0-4.324 5.181-8.642 10.362-8.642a5.183 5.183 0 0 1 5.181 5.182c0 5.182-4.318 10.364-8.646 10.364a5.151 5.151 0 0 1-3.281-1.177L5.132 29.312a1.73 1.73 0 0 1-2.445-2.445l12.764-12.761z" />
    </symbol>
    <symbol id="icon-twitter" viewBox="0 0 38 32">
      <path
        d="M23.384.934a8.37 8.37 0 0 1 8.736 1.74A16.25 16.25 0 0 0 36.109.619a1.2 1.2 0 0 1 1.858 1.265 13.553 13.553 0 0 1-3.219 5.996c.034.304.052.61.053.916V8.8c0 9.62-4.624 16.64-11.236 20.159-6.583 3.504-15.015 3.474-22.547-.71a1.2 1.2 0 0 1 .63-2.248c3.016.12 5.999-.546 8.662-1.916-6.109-3.495-8.117-8.8-8.506-13.356-.212-2.484.053-4.742.367-6.373.158-.818.329-1.484.462-1.951.067-.233.124-.417.166-.546l.05-.15.015-.042.007-.019L4 2.054l-1.129-.407c.152-.421.526-.723.97-.783s.884.133 1.141.5c1.554 2.213 4.377 5.053 6.647 6.195A15.86 15.86 0 0 0 18 9.234v-.38A8.373 8.373 0 0 1 23.384.932zM4.552 4.688l-.024.123c-.286 1.484-.521 3.512-.333 5.714.371 4.351 2.376 9.393 9.092 12.378a1.201 1.201 0 0 1 .187 2.09 19.807 19.807 0 0 1-7.076 3.002c5.631 1.835 11.393 1.318 16.038-1.154 5.788-3.08 9.963-9.26 9.964-18.039a5.937 5.937 0 0 0-.107-1.105 1.203 1.203 0 0 1 .336-1.08 11.156 11.156 0 0 0 1.775-2.274c-.74.333-1.502.619-2.282.853a1.2 1.2 0 0 1-1.252-.362 5.969 5.969 0 0 0-10.472 3.997v1.616a1.2 1.2 0 0 1-1.169 1.2 18.25 18.25 0 0 1-8.681-1.943C8.497 8.671 6.255 6.643 4.55 4.687z" />
    </symbol>
    <symbol id="icon-vector" viewBox="0 0 32 32">
      <path
        d="M17.488 18.934a2.082 2.082 0 0 1-2.294.459 2.077 2.077 0 0 1-.682-.459L4.916 9.317a2.108 2.108 0 0 0-1.488-.62 2.104 2.104 0 0 0-1.488.62 2.097 2.097 0 0 0 0 2.954l9.617 9.617a6.286 6.286 0 0 0 8.884 0l9.617-9.617a2.099 2.099 0 0 0-1.488-3.574 2.104 2.104 0 0 0-1.488.62l-9.596 9.617z" />
    </symbol>
    <symbol id="icon-error" viewBox="0 0 32 32">
      <path
        d="M14.4 20.8h3.2V24h-3.2v-3.2zm0-12.8h3.2v9.6h-3.2V8zm1.584-8C7.152 0 0 7.168 0 16s7.152 16 15.984 16C24.832 32 32 24.832 32 16S24.832 0 15.984 0zM16 28.8C8.928 28.8 3.2 23.072 3.2 16S8.928 3.2 16 3.2c7.072 0 12.8 5.728 12.8 12.8S23.072 28.8 16 28.8z" />
    </symbol>
    <symbol id="icon-check" viewBox="0 0 32 32">
      <path
        d="M12.636 31.213c1.395 0 2.449-.536 3.163-1.607l15.448-23.28c.257-.379.446-.753.569-1.121.123-.379.184-.742.184-1.088 0-.96-.335-1.752-1.004-2.377-.658-.636-1.473-.954-2.444-.954-.669 0-1.238.134-1.707.402-.457.257-.893.703-1.305 1.339L12.569 22.895l-6.494-7.782c-.703-.815-1.584-1.222-2.644-1.222-.993 0-1.813.318-2.46.954S0 16.279 0 17.238c0 .435.067.848.201 1.238.145.379.407.775.787 1.188l8.619 10.159c.792.926 1.802 1.389 3.029 1.389z" />
    </symbol>
    <symbol id="icon-mail" viewBox="0 0 32 32">
      <path stroke-linecap="round" stroke-linejoin="round" stroke-width="2.667"
        d="M5.333 5.333h21.333c1.467 0 2.667 1.2 2.667 2.667v16c0 1.467-1.2 2.667-2.667 2.667H5.333A2.675 2.675 0 0 1 2.666 24V8c0-1.467 1.2-2.667 2.667-2.667z" />
      <path stroke-linecap="round" stroke-linejoin="round" stroke-width="2.667" d="M29.333 8 16 17.333 2.667 8" />
    </symbol>
    <symbol id="icon-menu" viewBox="0 0 32 32">
      <path stroke-linecap="round" stroke-linejoin="round" stroke-width="2.667" d="M2 16h28M2 6.667h28M2 25.333h28" />
    </symbol>
    <symbol id="icon-phone" viewBox="0 0 32 32">
      <path stroke-linecap="round" stroke-linejoin="round" stroke-width="2.667"
        d="M29.333 22.56v4a2.655 2.655 0 0 1-1.812 2.537 2.672 2.672 0 0 1-1.094.13 26.398 26.398 0 0 1-11.507-4.093 25.988 25.988 0 0 1-8-8 26.382 26.382 0 0 1-4.093-11.56 2.657 2.657 0 0 1 .687-2.038 2.664 2.664 0 0 1 1.967-.868h4a2.67 2.67 0 0 1 2.667 2.294 17.16 17.16 0 0 0 .933 3.747 2.675 2.675 0 0 1-.6 2.814l-1.693 1.693a21.333 21.333 0 0 0 8 8l1.693-1.693c.362-.359.82-.606 1.319-.712s1.017-.067 1.495.112c1.21.451 2.467.765 3.747.933a2.665 2.665 0 0 1 2.293 2.707z" />
    </symbol>
    <symbol id="icon-user" viewBox="0 0 32 32">
      <path stroke-linecap="round" stroke-linejoin="round" stroke-width="2.667"
        d="M26.667 28v-2.667A5.332 5.332 0 0 0 21.334 20H10.667a5.332 5.332 0 0 0-5.333 5.333V28M16 14.667A5.333 5.333 0 1 0 16 4a5.333 5.333 0 0 0 0 10.667z" />
    </symbol>
    <symbol id="icon-close" viewBox="0 0 32 32">
      <path stroke-linecap="round" stroke-linejoin="round" stroke-width="2.286" d="M24 8 8 24M8 8l16 16" />
    </symbol>
  </defs>
</svg>